<svg width="1278" height="476" viewBox="0 0 1278 476" fill="none" xmlns="http://www.w3.org/2000/svg">
<path d="M746.381 203.25L640.035 294.596L746.381 385.941L852.727 294.596L746.381 203.25Z" fill="#626262" style="mix-blend-mode:overlay"/>
<path d="M532.867 202.25L639.213 293.596L532.867 384.941L426.522 293.596L532.867 202.25Z" fill="#626262" style="mix-blend-mode:overlay"/>
<path d="M853.497 112.75L747.151 204.096L853.497 295.441L959.842 204.096L853.497 112.75Z" fill="#C6C6C6" style="mix-blend-mode:overlay"/>
<path d="M426.75 112.75L533.096 204.096L426.75 295.441L320.404 204.096L426.75 112.75Z" fill="#C6C6C6" style="mix-blend-mode:overlay"/>
<path d="M1147.49 0.0999766H984.5L959.65 21.0957L1066 112.441L1172.34 21.0957L1147.49 0.0999766Z" fill="#595959" style="mix-blend-mode:overlay"/>
<path d="M295.581 0.0999749L320.596 21.0957L214.25 112.441L107.905 21.0957L132.92 0.0999749H295.581Z" fill="#595959" style="mix-blend-mode:overlay"/>
<path d="M724.688 0.379788L747.69 20.5957L640.344 111.941L532.998 20.5957L556 0.379788L724.688 0.379788Z" fill="#BBBBBB" style="mix-blend-mode:overlay"/>
<path d="M747.344 21L640.998 112.346L747.344 203.691L853.689 112.346L747.344 21Z" fill="#8C8C8C" style="mix-blend-mode:overlay"/>
<path d="M532.904 21L639.25 112.346L532.904 203.691L426.559 112.346L532.904 21Z" fill="#8C8C8C" style="mix-blend-mode:overlay"/>
<path d="M960.341 21.25L853.995 112.596L960.341 203.941L1066.69 112.596L960.341 21.25Z" fill="#101010" style="mix-blend-mode:overlay"/>
<path d="M319.905 21.25L426.251 112.596L319.905 203.941L213.56 112.596L319.905 21.25Z" fill="#101010" style="mix-blend-mode:overlay"/>
<path d="M213.346 112.25L319.692 203.596L213.346 294.941L107 203.596L213.346 112.25Z" fill="#1B1B1B" style="mix-blend-mode:overlay"/>
<path d="M106.346 21.25L212.691 112.596L106.346 203.941L0 112.596L106.346 21.25Z" fill="#1B1B1B" style="mix-blend-mode:overlay"/>
<path d="M1065.35 112.25L1171.69 203.596L1065.35 294.941L959 203.596L1065.35 112.25Z" fill="#1B1B1B" style="mix-blend-mode:overlay"/>
<path d="M1171.35 20.25L1277.69 111.596L1171.35 202.941L1065 111.596L1171.35 20.25Z" fill="#1B1B1B" style="mix-blend-mode:overlay"/>
<path d="M960.341 203.25L853.995 294.596L960.341 385.941L1066.69 294.596L960.341 203.25Z" fill="white" style="mix-blend-mode:overlay"/>
<path d="M319.905 203.25L426.251 294.596L319.905 385.941L213.56 294.596L319.905 203.25Z" fill="white" style="mix-blend-mode:overlay"/>
<path d="M772 0.0999762L747.501 21.0957L853.847 112.441L960.192 21.0957L935.693 0.0999762H772Z" fill="#262626" style="mix-blend-mode:overlay"/>
<path d="M508.3 0.0979476L532.746 21.0957L426.4 112.441L320.054 21.0957L344.5 0.0979478L508.3 0.0979476Z" fill="#262626" style="mix-blend-mode:overlay"/>
<path d="M640.344 111.25L746.689 202.596L640.344 293.941L533.998 202.596L640.344 111.25Z" fill="#2D2D2D" style="mix-blend-mode:overlay"/>
<path d="M641.344 293.25L747.689 384.596L641.344 475.941L534.998 384.596L641.344 293.25Z" fill="#9B9B9B" style="mix-blend-mode:overlay"/>
<path d="M638.906 293.25L532.56 384.596L638.906 475.941L745.251 384.596L638.906 293.25Z" fill="#626262" style="mix-blend-mode:overlay"/>
<path d="M1149.75 2.48074e-05L1173.9 20.6915L1198.25 5.30795e-07L1149.75 2.48074e-05Z" fill="#B0B0B0" style="mix-blend-mode:overlay"/>
<path d="M130.5 2.48074e-05L106.346 20.6915L82.0001 5.30795e-07L130.5 2.48074e-05Z" fill="#B0B0B0" style="mix-blend-mode:overlay"/>
<path d="M935.746 2.48074e-05L959.9 20.6915L984.246 5.30795e-07L935.746 2.48074e-05Z" fill="#8B8B8B" style="mix-blend-mode:overlay"/>
<path d="M344.5 2.48074e-05L320.346 20.6915L296 5.30795e-07L344.5 2.48074e-05Z" fill="#8B8B8B" style="mix-blend-mode:overlay"/>
<path d="M724.748 2.42766e-05L747.902 20.6915L772.248 0L724.748 2.42766e-05Z" fill="#8B8B8B" style="mix-blend-mode:overlay"/>
<path d="M556.5 2.48074e-05L532.346 20.6915L508 5.30795e-07L556.5 2.48074e-05Z" fill="#8B8B8B" style="mix-blend-mode:overlay"/>
</svg>
