<svg width="775" height="9" viewBox="0 0 775 9" fill="none" xmlns="http://www.w3.org/2000/svg">
<path d="M377.5 0L355.5 0.5L361.5 9H385.5L377.5 0Z" fill="url(#paint0_linear_829_982)"/>
<path d="M397 0L419 0.5L413 9H389L397 0Z" fill="url(#paint1_linear_829_982)"/>
<path d="M353.5 0.5L323.5 1L329.5 9H359.5L353.5 0.5Z" fill="url(#paint2_linear_829_982)"/>
<path d="M421 0.5L451 1L445 9H415L421 0.5Z" fill="url(#paint3_linear_829_982)"/>
<path d="M321.5 1H292.5L297.5 9H327.5L321.5 1Z" fill="url(#paint4_linear_829_982)"/>
<path d="M453 1H482L477 9H447L453 1Z" fill="url(#paint5_linear_829_982)"/>
<path d="M290.5 1H260.5L265.5 9H295.5L290.5 1Z" fill="url(#paint6_linear_829_982)"/>
<path d="M484 1H514L509 9H479L484 1Z" fill="url(#paint7_linear_829_982)"/>
<path d="M258.5 1L228.5 1.5L233.5 9H263.5L258.5 1Z" fill="url(#paint8_linear_829_982)"/>
<path d="M516 1L546 1.5L541 9H511L516 1Z" fill="url(#paint9_linear_829_982)"/>
<path d="M226.5 1.5L196.5 2L201.5 9H231.5L226.5 1.5Z" fill="url(#paint10_linear_829_982)"/>
<path d="M548 1.5L578 2L573 9H543L548 1.5Z" fill="url(#paint11_linear_829_982)"/>
<path d="M194.5 2L165.5 2.5L169.5 9H199.5L194.5 2Z" fill="url(#paint12_linear_829_982)"/>
<path d="M580 2L609 2.5L605 9H575L580 2Z" fill="url(#paint13_linear_829_982)"/>
<path d="M163.5 2.5L134.5 3L137.5 9H167.5L163.5 2.5Z" fill="url(#paint14_linear_829_982)"/>
<path d="M611 2.5L640 3L637 9H607L611 2.5Z" fill="url(#paint15_linear_829_982)"/>
<path d="M132.5 3H102.5L105.5 9H135.5L132.5 3Z" fill="url(#paint16_linear_829_982)"/>
<path d="M642 3H672L669 9H639L642 3Z" fill="url(#paint17_linear_829_982)"/>
<path d="M100.5 3L70.5 3.5L73.5 9H103.5L100.5 3Z" fill="url(#paint18_linear_829_982)"/>
<path d="M674 3L704 3.5L701 9H671L674 3Z" fill="url(#paint19_linear_829_982)"/>
<path d="M68.5 3.5L38.5 4L41.5 9H71.5L68.5 3.5Z" fill="url(#paint20_linear_829_982)"/>
<path d="M706 3.5L736 4L733 9H703L706 3.5Z" fill="url(#paint21_linear_829_982)"/>
<path d="M36.5 4H6.5L9.5 9H39.5L36.5 4Z" fill="url(#paint22_linear_829_982)"/>
<path d="M738 4H768L765 9H735L738 4Z" fill="url(#paint23_linear_829_982)"/>
<path d="M5 4.5L0 9H7.5L5 4.5Z" fill="url(#paint24_linear_829_982)"/>
<path d="M769.5 4.5L774.5 9H767L769.5 4.5Z" fill="url(#paint25_linear_829_982)"/>
<path d="M387.5 8.5L379.5 0H395L387.5 8.5Z" fill="url(#paint26_linear_829_982)"/>
<defs>
<linearGradient id="paint0_linear_829_982" x1="0" y1="8.99989" x2="775" y2="8.99989" gradientUnits="userSpaceOnUse">
<stop stop-color="#906720"/>
<stop offset="0.498065" stop-color="#E3AB3C"/>
<stop offset="1" stop-color="#916820"/>
</linearGradient>
<linearGradient id="paint1_linear_829_982" x1="0" y1="8.99989" x2="775" y2="8.99989" gradientUnits="userSpaceOnUse">
<stop stop-color="#906720"/>
<stop offset="0.498065" stop-color="#E3AB3C"/>
<stop offset="1" stop-color="#916820"/>
</linearGradient>
<linearGradient id="paint2_linear_829_982" x1="0" y1="8.99989" x2="775" y2="8.99989" gradientUnits="userSpaceOnUse">
<stop stop-color="#906720"/>
<stop offset="0.498065" stop-color="#E3AB3C"/>
<stop offset="1" stop-color="#916820"/>
</linearGradient>
<linearGradient id="paint3_linear_829_982" x1="0" y1="8.99989" x2="775" y2="8.99989" gradientUnits="userSpaceOnUse">
<stop stop-color="#906720"/>
<stop offset="0.498065" stop-color="#E3AB3C"/>
<stop offset="1" stop-color="#916820"/>
</linearGradient>
<linearGradient id="paint4_linear_829_982" x1="0" y1="8.99989" x2="775" y2="8.99989" gradientUnits="userSpaceOnUse">
<stop stop-color="#906720"/>
<stop offset="0.498065" stop-color="#E3AB3C"/>
<stop offset="1" stop-color="#916820"/>
</linearGradient>
<linearGradient id="paint5_linear_829_982" x1="0" y1="8.99989" x2="775" y2="8.99989" gradientUnits="userSpaceOnUse">
<stop stop-color="#906720"/>
<stop offset="0.498065" stop-color="#E3AB3C"/>
<stop offset="1" stop-color="#916820"/>
</linearGradient>
<linearGradient id="paint6_linear_829_982" x1="0" y1="8.99989" x2="775" y2="8.99989" gradientUnits="userSpaceOnUse">
<stop stop-color="#906720"/>
<stop offset="0.498065" stop-color="#E3AB3C"/>
<stop offset="1" stop-color="#916820"/>
</linearGradient>
<linearGradient id="paint7_linear_829_982" x1="0" y1="8.99989" x2="775" y2="8.99989" gradientUnits="userSpaceOnUse">
<stop stop-color="#906720"/>
<stop offset="0.498065" stop-color="#E3AB3C"/>
<stop offset="1" stop-color="#916820"/>
</linearGradient>
<linearGradient id="paint8_linear_829_982" x1="0" y1="8.99989" x2="775" y2="8.99989" gradientUnits="userSpaceOnUse">
<stop stop-color="#906720"/>
<stop offset="0.498065" stop-color="#E3AB3C"/>
<stop offset="1" stop-color="#916820"/>
</linearGradient>
<linearGradient id="paint9_linear_829_982" x1="0" y1="8.99989" x2="775" y2="8.99989" gradientUnits="userSpaceOnUse">
<stop stop-color="#906720"/>
<stop offset="0.498065" stop-color="#E3AB3C"/>
<stop offset="1" stop-color="#916820"/>
</linearGradient>
<linearGradient id="paint10_linear_829_982" x1="0" y1="8.99989" x2="775" y2="8.99989" gradientUnits="userSpaceOnUse">
<stop stop-color="#906720"/>
<stop offset="0.498065" stop-color="#E3AB3C"/>
<stop offset="1" stop-color="#916820"/>
</linearGradient>
<linearGradient id="paint11_linear_829_982" x1="0" y1="8.99989" x2="775" y2="8.99989" gradientUnits="userSpaceOnUse">
<stop stop-color="#906720"/>
<stop offset="0.498065" stop-color="#E3AB3C"/>
<stop offset="1" stop-color="#916820"/>
</linearGradient>
<linearGradient id="paint12_linear_829_982" x1="0" y1="8.99989" x2="775" y2="8.99989" gradientUnits="userSpaceOnUse">
<stop stop-color="#906720"/>
<stop offset="0.498065" stop-color="#E3AB3C"/>
<stop offset="1" stop-color="#916820"/>
</linearGradient>
<linearGradient id="paint13_linear_829_982" x1="0" y1="8.99989" x2="775" y2="8.99989" gradientUnits="userSpaceOnUse">
<stop stop-color="#906720"/>
<stop offset="0.498065" stop-color="#E3AB3C"/>
<stop offset="1" stop-color="#916820"/>
</linearGradient>
<linearGradient id="paint14_linear_829_982" x1="0" y1="8.99989" x2="775" y2="8.99989" gradientUnits="userSpaceOnUse">
<stop stop-color="#906720"/>
<stop offset="0.498065" stop-color="#E3AB3C"/>
<stop offset="1" stop-color="#916820"/>
</linearGradient>
<linearGradient id="paint15_linear_829_982" x1="0" y1="8.99989" x2="775" y2="8.99989" gradientUnits="userSpaceOnUse">
<stop stop-color="#906720"/>
<stop offset="0.498065" stop-color="#E3AB3C"/>
<stop offset="1" stop-color="#916820"/>
</linearGradient>
<linearGradient id="paint16_linear_829_982" x1="0" y1="8.99989" x2="775" y2="8.99989" gradientUnits="userSpaceOnUse">
<stop stop-color="#906720"/>
<stop offset="0.498065" stop-color="#E3AB3C"/>
<stop offset="1" stop-color="#916820"/>
</linearGradient>
<linearGradient id="paint17_linear_829_982" x1="0" y1="8.99989" x2="775" y2="8.99989" gradientUnits="userSpaceOnUse">
<stop stop-color="#906720"/>
<stop offset="0.498065" stop-color="#E3AB3C"/>
<stop offset="1" stop-color="#916820"/>
</linearGradient>
<linearGradient id="paint18_linear_829_982" x1="0" y1="8.99989" x2="775" y2="8.99989" gradientUnits="userSpaceOnUse">
<stop stop-color="#906720"/>
<stop offset="0.498065" stop-color="#E3AB3C"/>
<stop offset="1" stop-color="#916820"/>
</linearGradient>
<linearGradient id="paint19_linear_829_982" x1="0" y1="8.99989" x2="775" y2="8.99989" gradientUnits="userSpaceOnUse">
<stop stop-color="#906720"/>
<stop offset="0.498065" stop-color="#E3AB3C"/>
<stop offset="1" stop-color="#916820"/>
</linearGradient>
<linearGradient id="paint20_linear_829_982" x1="0" y1="8.99989" x2="775" y2="8.99989" gradientUnits="userSpaceOnUse">
<stop stop-color="#906720"/>
<stop offset="0.498065" stop-color="#E3AB3C"/>
<stop offset="1" stop-color="#916820"/>
</linearGradient>
<linearGradient id="paint21_linear_829_982" x1="0" y1="8.99989" x2="775" y2="8.99989" gradientUnits="userSpaceOnUse">
<stop stop-color="#906720"/>
<stop offset="0.498065" stop-color="#E3AB3C"/>
<stop offset="1" stop-color="#916820"/>
</linearGradient>
<linearGradient id="paint22_linear_829_982" x1="0" y1="8.99989" x2="775" y2="8.99989" gradientUnits="userSpaceOnUse">
<stop stop-color="#906720"/>
<stop offset="0.498065" stop-color="#E3AB3C"/>
<stop offset="1" stop-color="#916820"/>
</linearGradient>
<linearGradient id="paint23_linear_829_982" x1="0" y1="8.99989" x2="775" y2="8.99989" gradientUnits="userSpaceOnUse">
<stop stop-color="#906720"/>
<stop offset="0.498065" stop-color="#E3AB3C"/>
<stop offset="1" stop-color="#916820"/>
</linearGradient>
<linearGradient id="paint24_linear_829_982" x1="0" y1="8.99989" x2="775" y2="8.99989" gradientUnits="userSpaceOnUse">
<stop stop-color="#906720"/>
<stop offset="0.498065" stop-color="#E3AB3C"/>
<stop offset="1" stop-color="#916820"/>
</linearGradient>
<linearGradient id="paint25_linear_829_982" x1="0" y1="8.99989" x2="775" y2="8.99989" gradientUnits="userSpaceOnUse">
<stop stop-color="#906720"/>
<stop offset="0.498065" stop-color="#E3AB3C"/>
<stop offset="1" stop-color="#916820"/>
</linearGradient>
<linearGradient id="paint26_linear_829_982" x1="0" y1="8.99989" x2="775" y2="8.99989" gradientUnits="userSpaceOnUse">
<stop stop-color="#906720"/>
<stop offset="0.498065" stop-color="#E3AB3C"/>
<stop offset="1" stop-color="#916820"/>
</linearGradient>
</defs>
</svg>
